<svg width="70" height="70" viewBox="0 0 70 70" fill="none" xmlns="http://www.w3.org/2000/svg">
<g clip-path="url(#clip0_32:4549)">
<path d="M62.1565 29.75L50.5126 23.0253L34.5596 34.945L50.5123 46.8647L62.1959 40.1169C64.0176 39.0101 65.1048 37.0762 65.1048 34.9453C65.1048 32.8143 64.0175 30.8805 62.1565 29.75Z" fill="#FF9100"/>
<path d="M38.5935 34.9455C38.576 34.9679 24.4884 53.0807 24.477 53.0953L6.12553 67.5479C4.99607 66.4185 4.31055 64.8861 4.31055 63.1918V6.59911C4.31055 4.90526 4.99607 3.37247 6.12553 2.24329L24.477 16.7957C24.4884 16.8103 38.576 34.923 38.5935 34.9455Z" fill="#25D9F8"/>
<path d="M38.5929 34.9458L34.5596 40.1486V29.7427L38.5929 34.9458Z" fill="#00C0F1"/>
<path d="M50.5336 23.0069L38.5949 34.9456L6.12695 2.24349C6.53015 1.88036 6.93361 1.59803 7.37727 1.3157C9.31312 0.226849 11.6122 0.267047 13.508 1.43684L34.5616 13.8111L50.5336 23.0069Z" fill="#7FE881"/>
<path d="M50.5315 23.0067L38.5929 34.9454L34.5596 30.9121V13.8109L50.5315 23.0067Z" fill="#5BC980"/>
<path d="M50.5336 46.8835L34.5616 56.0795L13.4677 68.3945C12.4997 68.959 11.451 69.2817 10.3619 69.2817C9.35358 69.2817 8.34526 68.9994 7.37727 68.475C6.93361 68.1927 6.53015 67.9105 6.12695 67.5475L38.5949 34.9451L50.5336 46.8835Z" fill="#FF637B"/>
<path d="M50.5315 46.8835L34.5596 56.0795V38.9784L38.5929 34.9451L50.5315 46.8835Z" fill="#E63950"/>
</g>
<defs>
<clipPath id="clip0_32:4549">
<rect width="68.754" height="68.754" fill="white" transform="translate(0.331055 0.528076)"/>
</clipPath>
</defs>
</svg>
